<svg width="45" height="44" viewBox="0 0 45 44" fill="none" xmlns="http://www.w3.org/2000/svg">
<circle cx="22.4735" cy="22.1969" r="21.3732" stroke="black" stroke-opacity="0.12" stroke-width="0.806537"/>
<g clip-path="url(#clip0_2225_10104)">
<path d="M24.5294 20.7288L31.4794 12.6498L31.766 12.3167H31.3266H29.6555H29.563L29.5027 12.3868L23.5512 19.305L18.8095 12.4041L18.7494 12.3167H18.6433H13.0032H12.62L12.837 12.6325L20.1437 23.2663L12.8503 31.7437L12.5637 32.0768H13.0032H14.6742H14.7667L14.8271 32.0067L21.1218 24.6897L26.1376 31.9894L26.1977 32.0768H26.3038H31.9439H32.3271L32.1101 31.761L24.5294 20.7288ZM27.1951 30.4728L22.1885 23.3118V23.3113L22.1521 23.2593L21.4028 22.1877L21.4028 22.1877L15.6632 13.9778H17.7378L22.4882 20.7734L22.4882 20.7734L23.2374 21.845L29.2693 30.4728H27.1951Z" fill="black" stroke="black" stroke-width="0.403268"/>
</g>
<defs>
<clipPath id="clip0_2225_10104">
<rect width="19.3569" height="19.3569" fill="white" transform="translate(12.7952 12.5183)"/>
</clipPath>
</defs>
</svg>
