<svg width="44" height="45" viewBox="0 0 44 45" fill="none" xmlns="http://www.w3.org/2000/svg">
<path d="M31.2583 37.68C29.4616 39.4217 27.5 39.1467 25.6116 38.3217C23.6133 37.4783 21.78 37.4417 19.6716 38.3217C17.0316 39.4583 15.6383 39.1283 14.0616 37.68C5.11497 28.4583 6.43498 14.415 16.5916 13.9017C19.0666 14.03 20.79 15.2583 22.2383 15.3683C24.4016 14.9283 26.4733 13.6633 28.7833 13.8283C31.5516 14.0483 33.6416 15.1483 35.0166 17.1283C29.2966 20.5567 30.6533 28.0917 35.8966 30.2C34.8516 32.95 33.495 35.6817 31.24 37.6983L31.2583 37.68ZM22.055 13.7917C21.78 9.70333 25.0983 6.33 28.9116 6C29.4433 10.73 24.6216 14.25 22.055 13.7917Z" fill="#010F1E"/>
</svg>
