<svg width="154" height="154" viewBox="0 0 154 154" fill="none" xmlns="http://www.w3.org/2000/svg">
<path d="M128.333 78.2834V89.1918C128.333 109.404 116.783 118.067 99.4583 118.067H41.7083C24.3833 118.067 12.8333 109.404 12.8333 89.1918V54.5417C12.8333 34.3292 24.3833 25.6667 41.7083 25.6667H59.0332C58.1991 28.105 57.7499 30.8 57.7499 33.6875V58.7127C57.7499 64.9368 59.8033 70.1984 63.4608 73.8559C67.1183 77.5134 72.3799 79.5668 78.6041 79.5668V88.4857C78.6041 91.7582 82.3258 93.7476 85.0849 91.951L103.629 79.5668H120.312C123.2 79.5668 125.895 79.1176 128.333 78.2834Z" fill="#010F1E"/>
<path opacity="0.4" d="M141.167 33.6875V58.7126C141.167 68.2735 136.29 75.4601 128.333 78.2834C125.895 79.1176 123.2 79.5668 120.312 79.5668H103.629L85.085 91.9509C82.3258 93.7476 78.6042 91.7582 78.6042 88.4857V79.5668C72.38 79.5668 67.1183 77.5134 63.4608 73.8559C59.8033 70.1984 57.75 64.9368 57.75 58.7126V33.6875C57.75 30.8 58.1992 28.105 59.0333 25.6666C61.8567 17.71 69.0433 12.8333 78.6042 12.8333H120.312C132.825 12.8333 141.167 21.175 141.167 33.6875Z" fill="#1B4677"/>
<path opacity="0.4" d="M93.6827 136.354H75.3952V118.067C75.3952 115.436 73.2135 113.254 70.5827 113.254C67.9518 113.254 65.7702 115.436 65.7702 118.067V136.354H47.4827C44.8518 136.354 42.6702 138.536 42.6702 141.167C42.6702 143.798 44.8518 145.979 47.4827 145.979H93.6827C96.3135 145.979 98.4952 143.798 98.4952 141.167C98.4952 138.536 96.3135 136.354 93.6827 136.354Z" fill="#010F1E"/>
<path d="M99.073 51.3333C96.378 51.3333 94.2605 49.1516 94.2605 46.5208C94.2605 43.89 96.4422 41.7083 99.073 41.7083C101.704 41.7083 103.886 43.89 103.886 46.5208C103.886 49.1516 101.704 51.3333 99.073 51.3333Z" fill="#010F1E"/>
<path d="M117.104 51.3333C114.409 51.3333 112.292 49.1516 112.292 46.5208C112.292 43.89 114.473 41.7083 117.104 41.7083C119.735 41.7083 121.917 43.89 121.917 46.5208C121.917 49.1516 119.735 51.3333 117.104 51.3333Z" fill="#010F1E"/>
<path d="M80.979 51.3333C78.284 51.3333 76.1665 49.1516 76.1665 46.5208C76.1665 43.89 78.3482 41.7083 80.979 41.7083C83.6098 41.7083 85.7915 43.89 85.7915 46.5208C85.7915 49.1516 83.674 51.3333 80.979 51.3333Z" fill="#010F1E"/>
</svg>
