<svg width="121" height="122" viewBox="0 0 121 122" fill="none" xmlns="http://www.w3.org/2000/svg">
<path opacity="0.4" d="M90.6491 54.8996V75.0663C90.6491 76.3771 90.5987 77.6375 90.4474 78.8475C89.2878 92.46 81.2716 99.2158 66.4995 99.2158H64.4829C63.2225 99.2158 62.0124 99.8208 61.2561 100.829L55.2062 108.896C52.5341 112.475 48.1982 112.475 45.5262 108.896L39.4761 100.829C38.8207 99.9721 37.3587 99.2158 36.2495 99.2158H34.2329C18.15 99.2158 10.0833 95.233 10.0833 75.0663V54.8996C10.0833 40.1275 16.8895 32.1113 30.4516 30.9517C31.6616 30.8005 32.922 30.75 34.2329 30.75H66.4995C82.5824 30.75 90.6491 38.8167 90.6491 54.8996Z" fill="#4399FD"/>
<path d="M50.3661 71.0833C47.5428 71.0833 45.3245 68.8146 45.3245 66.0417C45.3245 63.2687 47.5932 61 50.3661 61C53.139 61 55.4078 63.2687 55.4078 66.0417C55.4078 68.8146 53.1895 71.0833 50.3661 71.0833Z" fill="white"/>
<path d="M68.0121 71.0833C65.1888 71.0833 62.9705 68.8146 62.9705 66.0417C62.9705 63.2687 65.2392 61 68.0121 61C70.785 61 73.0538 63.2687 73.0538 66.0417C73.0538 68.8146 70.785 71.0833 68.0121 71.0833Z" fill="white"/>
<path d="M32.7709 71.0833C29.9476 71.0833 27.7292 68.8146 27.7292 66.0417C27.7292 63.2687 29.998 61 32.7709 61C35.5438 61 37.8126 63.2687 37.8126 66.0417C37.8126 68.8146 35.5438 71.0833 32.7709 71.0833Z" fill="white"/>
<path d="M110.816 34.733V54.8997C110.816 69.7222 104.01 77.688 90.4477 78.8476C90.599 77.6376 90.6494 76.3772 90.6494 75.0663V54.8997C90.6494 38.8167 82.5827 30.75 66.4998 30.75H34.2332C32.9223 30.75 31.6619 30.8005 30.4519 30.9517C31.6115 17.3897 39.6277 10.5834 54.3998 10.5834H86.6665C102.749 10.5834 110.816 18.6501 110.816 34.733Z" fill="white"/>
</svg>
