<svg width="154" height="155" viewBox="0 0 154 155" fill="none" xmlns="http://www.w3.org/2000/svg">
<path d="M95.2242 70.4414L131.543 46.1222C135.2 43.6838 136.163 38.679 133.724 35.0857L122.046 17.6964C119.608 14.0389 114.603 13.0764 111.009 15.5147L74.6909 39.834L95.2242 70.4414Z" fill="white"/>
<path d="M93.1711 67.3616L81.8778 74.9332L64.7452 86.4191L62.4994 87.8948L61.4728 86.3548L47.0994 64.9232L46.0728 63.3831L76.7444 42.8499L93.1711 67.3616Z" fill="white"/>
<path d="M36.1903 103.295L61.5361 86.3552L47.1628 64.9236L21.817 81.8635C18.8653 83.8526 18.0953 87.8311 20.0845 90.7827L27.3353 101.563C29.2603 104.514 33.2386 105.284 36.1903 103.295Z" fill="white"/>
<path opacity="0.4" d="M106.259 140.447C105.618 140.704 104.912 140.897 104.27 140.897C102.409 140.897 100.677 139.806 99.8428 138.009L75.9086 85.1357L51.6536 138.073C50.8195 139.806 49.087 140.897 47.2261 140.897C46.5845 140.897 45.8786 140.704 45.237 140.447C42.8628 139.292 41.7719 136.469 42.8628 134.031L64.7436 86.4191L81.8761 74.9332L108.634 134.095C109.724 136.469 108.634 139.357 106.259 140.447Z" fill="#80BAFF"/>
</svg>
