<svg width="44" height="45" viewBox="0 0 44 45" fill="none" xmlns="http://www.w3.org/2000/svg">
<path d="M6 7.54874V36.835C6.0002 36.8985 6.01915 36.9606 6.05448 37.0134C6.08981 37.0662 6.13994 37.1074 6.19859 37.1318C6.25725 37.1563 6.32181 37.1628 6.38418 37.1507C6.44656 37.1386 6.50396 37.1084 6.54921 37.0637L21.7982 22.1926L6.54921 7.31996C6.50396 7.27535 6.44656 7.24509 6.38418 7.23298C6.32181 7.22087 6.25725 7.22744 6.19859 7.25187C6.13994 7.27631 6.08981 7.31751 6.05448 7.37032C6.01915 7.42313 6.0002 7.4852 6 7.54874ZM28.192 16.082L9.0717 5.54788L9.05978 5.54118C8.7304 5.36233 8.41742 5.80796 8.68718 6.06729L23.6753 20.3989L28.192 16.082ZM8.68867 38.3179C8.41742 38.5772 8.7304 39.0229 9.06127 38.844L9.07319 38.8373L28.192 28.3032L23.6753 23.9848L8.68867 38.3179ZM35.9107 20.3296L30.5714 17.3891L25.551 22.1926L30.5714 26.9939L35.9107 24.0556C37.3631 23.253 37.3631 21.1322 35.9107 20.3296Z" fill="#010F1E"/>
</svg>
