<svg width="44" height="44" viewBox="0 0 44 44" fill="none" xmlns="http://www.w3.org/2000/svg">
<path d="M6 7.04877V36.335C6.0002 36.3985 6.01915 36.4606 6.05448 36.5134C6.08981 36.5662 6.13994 36.6074 6.19859 36.6319C6.25725 36.6563 6.32181 36.6629 6.38418 36.6508C6.44656 36.6386 6.50396 36.6084 6.54921 36.5638L21.7982 21.6926L6.54921 6.81999C6.50396 6.77538 6.44656 6.74512 6.38418 6.73301C6.32181 6.7209 6.25725 6.72747 6.19859 6.7519C6.13994 6.77634 6.08981 6.81754 6.05448 6.87035C6.01915 6.92316 6.0002 6.98523 6 7.04877ZM28.192 15.582L9.0717 5.04791L9.05978 5.04121C8.7304 4.86236 8.41742 5.30799 8.68718 5.56732L23.6753 19.8989L28.192 15.582ZM8.68867 37.8179C8.41742 38.0773 8.7304 38.5229 9.06127 38.3441L9.07319 38.3373L28.192 27.8032L23.6753 23.4848L8.68867 37.8179ZM35.9107 19.8296L30.5714 16.8891L25.551 21.6926L30.5714 26.4939L35.9107 23.5556C37.3631 22.753 37.3631 20.6322 35.9107 19.8296Z" fill="white"/>
</svg>
