<svg width="121" height="121" viewBox="0 0 121 121" fill="none" xmlns="http://www.w3.org/2000/svg">
<path opacity="0.4" d="M43.7112 70.5833H20.1666C14.6208 70.5833 10.0833 75.1208 10.0833 80.6666V110.917H43.7112V70.5833Z" fill="#013776"/>
<path d="M67.2047 50.4167H53.7435C48.1977 50.4167 43.6602 54.9542 43.6602 60.5V110.917H77.2881V60.5C77.2881 54.9542 72.801 50.4167 67.2047 50.4167Z" fill="white"/>
<path opacity="0.4" d="M100.834 85.7083H77.2891V110.917H110.917V95.7916C110.917 90.2458 106.379 85.7083 100.834 85.7083Z" fill="#013776"/>
<path d="M75.6752 24.452C77.2381 22.8891 77.8431 21.0237 77.339 19.4104C76.8348 17.797 75.2719 16.6375 73.0535 16.2845L68.2135 15.4779C68.0119 15.4274 67.5581 15.1249 67.4573 14.9232L64.7852 9.57905C62.7685 5.4953 58.1806 5.4953 56.164 9.57905L53.4919 14.9232C53.391 15.1249 52.9373 15.4274 52.7356 15.4779L47.8956 16.2845C45.6773 16.6375 44.1648 17.797 43.6102 19.4104C43.1061 21.0237 43.711 22.8891 45.274 24.452L49.0048 28.2333C49.156 28.3845 49.3577 28.9895 49.3073 29.1912L48.2485 33.8295C47.4419 37.2578 48.7527 38.8207 49.6098 39.4761C50.4669 40.0811 52.3323 40.8878 55.4077 39.0728L59.9452 36.4008C60.1469 36.2495 60.8023 36.2495 61.004 36.4008L65.5415 39.0728C66.9531 39.9299 68.1127 40.182 69.0202 40.182C70.079 40.182 70.8352 39.7786 71.289 39.4761C72.146 38.8711 73.4569 37.3082 72.6502 33.8295L71.5915 29.1912C71.541 28.9391 71.6923 28.3845 71.8939 28.2333L75.6752 24.452Z" fill="white"/>
</svg>
