<svg width="121" height="122" viewBox="0 0 121 122" fill="none" xmlns="http://www.w3.org/2000/svg">
<path opacity="0.4" d="M47.4926 11.3898L19.7634 21.7756C14.4696 23.7418 10.1338 30.0439 10.1338 35.6906V76.5281C10.1338 80.6118 12.8059 86.0064 16.083 88.4264L43.8122 109.148C48.7026 112.828 56.7188 112.828 61.6092 109.148L89.3384 88.4264C92.6155 85.956 95.2875 80.6118 95.2875 76.5281V35.6906C95.2875 30.0439 90.9518 23.7418 85.658 21.7756L57.9288 11.3898C55.0551 10.331 50.3663 10.331 47.4926 11.3898Z" fill="#160033"/>
<path d="M97.1021 34.5817H62.5667C61.5584 34.5817 60.6004 34.6321 59.6929 34.6321C51.0213 35.1363 48.7021 38.3126 48.7021 48.1942V50.1605C48.7021 52.2488 50.3951 53.9417 52.4834 53.9417H107.135C109.223 53.9417 110.916 52.2488 110.916 50.1605V48.1942C110.916 37.3042 108.143 34.5817 97.1021 34.5817Z" fill="white"/>
<path d="M52.5337 59.4873C50.4454 59.4873 48.7524 61.1802 48.7524 63.2686V73.8056C48.7524 84.6956 51.5254 87.4686 62.5666 87.4686H97.102C107.942 87.4686 110.815 84.8469 110.916 74.4107V63.2686C110.916 61.1802 109.223 59.4873 107.135 59.4873H52.5337ZM66.9025 78.4944H60.6004C59.0879 78.4944 57.8778 77.2844 57.8778 75.7719C57.8778 74.2594 59.0879 73.0494 60.6004 73.0494H66.9025C68.415 73.0494 69.6249 74.2594 69.6249 75.7719C69.6249 77.2844 68.415 78.4944 66.9025 78.4944ZM87.3212 78.4944H74.7675C73.255 78.4944 72.0449 77.2844 72.0449 75.7719C72.0449 74.2594 73.255 73.0494 74.7675 73.0494H87.3212C88.8337 73.0494 90.0437 74.2594 90.0437 75.7719C90.0941 77.2844 88.8337 78.4944 87.3212 78.4944Z" fill="white"/>
</svg>
